# xmcd
# 
# Track frame offsets:
#     150
#     17238
#     31105
#     51443
#     67710
#     86343
#     104012
#     119402
#     142200
#     163792
# 
# Disc length: 2498
# 
# Revision: 0
# Processed by: cddbd v1.5.2PL0 Copyright (c) Steve Scherf et al.
# Submitted via: fre:ac v1.0.31
# 
DISCID=8709c00a
DTITLE=Van Morrison - It's Too Late To Stop Now Disc 1
DYEAR=1974
DGENRE=Rock/Pop
TTITLE0=Ain't Nothin' You Can Do
TTITLE1=Warm Love
TTITLE2=Into The Mystic
TTITLE3=These Dreams of You
TTITLE4=I Believe To My Soul
TTITLE5=I've Been Working
TTITLE6=Help Me
TTITLE7=Wild Children
TTITLE8=Domino
TTITLE9=I Just Want To Make Love To You
EXTD=
EXTT0=
EXTT1=
EXTT2=
EXTT3=
EXTT4=
EXTT5=
EXTT6=
EXTT7=
EXTT8=
EXTT9=
PLAYORDER=
